{
  "accessors": [
    {
      "bufferView": 2,
      "componentType": 5126,
      "count": 44060,
      "max": [
        38.97271728515625,
        38.81279373168945,
        67.73969268798828
      ],
      "min": [
        -38.57763671875,
        -38.543663024902344,
        0.39591339230537415
      ],
      "type": "VEC3"
    },
    {
      "bufferView": 2,
      "byteOffset": 528720,
      "componentType": 5126,
      "count": 44060,
      "max": [
        0.9999491572380066,
        0.9995769262313843,
        1.0
      ],
      "min": [
        -0.9997500777244568,
        -0.9997135996818542,
        -0.9999999403953552
      ],
      "type": "VEC3"
    },
    {
      "bufferView": 1,
      "componentType": 5126,
      "count": 44060,
      "max": [
        32.99051284790039,
        41.821807861328125
      ],
      "min": [
        -13596297.0,
        -5270628.5
      ],
      "type": "VEC2"
    },
    {
      "bufferView": 0,
      "componentType": 5125,
      "count": 172968,
      "type": "SCALAR"
    }
  ],
  "asset": {
    "extras": {
      "author": "katydid (https://sketchfab.com/Katydid.)",
      "license": "SKETCHFAB Standard (https://sketchfab.com/licenses)",
      "source": "https://sketchfab.com/3d-models/burger-164de479109741aeab133196b57b1891",
      "title": "Burger"
    },
    "generator": "Sketchfab-16.74.0",
    "version": "2.0"
  },
  "bufferViews": [
    {
      "buffer": 0,
      "byteLength": 691872,
      "name": "floatBufferViews",
      "target": 34963
    },
    {
      "buffer": 0,
      "byteLength": 352480,
      "byteOffset": 691872,
      "byteStride": 8,
      "name": "floatBufferViews",
      "target": 34962
    },
    {
      "buffer": 0,
      "byteLength": 1057440,
      "byteOffset": 1044352,
      "byteStride": 12,
      "name": "floatBufferViews",
      "target": 34962
    }
  ],
  "buffers": [
    {
      "byteLength": 2101792,
      "uri": "scene.bin"
    }
  ],
  "images": [
    {
      "uri": "textures/MaterialView0_baseColor.jpeg"
    }
  ],
  "materials": [
    {
      "doubleSided": true,
      "name": "MaterialView0",
      "pbrMetallicRoughness": {
        "baseColorTexture": {
          "index": 0
        },
        "metallicFactor": 0.0,
        "roughnessFactor": 0.5
      }
    }
  ],
  "meshes": [
    {
      "name": "_3DGeom112",
      "primitives": [
        {
          "attributes": {
            "NORMAL": 1,
            "POSITION": 0,
            "TEXCOORD_0": 2
          },
          "indices": 3,
          "material": 0,
          "mode": 4
        }
      ]
    }
  ],
  "nodes": [
    {
      "children": [
        1
      ],
      "matrix": [
        1.0,
        0.0,
        0.0,
        0.0,
        0.0,
        2.220446049250313e-16,
        -1.0,
        0.0,
        0.0,
        1.0,
        2.220446049250313e-16,
        0.0,
        0.0,
        0.0,
        0.0,
        1.0
      ],
      "name": "Sketchfab_model"
    },
    {
      "children": [
        2
      ],
      "matrix": [
        0.009999999776482582,
        0.0,
        0.0,
        0.0,
        0.0,
        0.009999999776482582,
        0.0,
        0.0,
        0.0,
        0.0,
        0.009999999776482582,
        0.0,
        0.0,
        0.0,
        0.0,
        1.0
      ],
      "name": "USDRoot"
    },
    {
      "children": [
        3
      ],
      "matrix": [
        100.0,
        0.0,
        0.0,
        0.0,
        0.0,
        100.0,
        0.0,
        0.0,
        0.0,
        0.0,
        100.0,
        0.0,
        0.0,
        0.0,
        0.0,
        1.0
      ],
      "name": "model_4936afb8_1164_4403_9eb5_7c46a79c509f_c771f2e3_sl"
    },
    {
      "children": [
        4
      ],
      "matrix": [
        0.02539999969303608,
        0.0,
        0.0,
        0.0,
        0.0,
        0.02539999969303608,
        0.0,
        0.0,
        0.0,
        0.0,
        0.02539999969303608,
        0.0,
        0.9798719882965088,
        0.9790089726448059,
        -0.010046199895441532,
        1.0
      ],
      "name": "New0"
    },
    {
      "children": [
        5
      ],
      "name": "_3DGeom11"
    },
    {
      "mesh": 0,
      "name": "_3DGeom112"
    }
  ],
  "samplers": [
    {
      "magFilter": 9729,
      "minFilter": 9987,
      "wrapS": 10497,
      "wrapT": 10497
    }
  ],
  "scene": 0,
  "scenes": [
    {
      "name": "Sketchfab_Scene",
      "nodes": [
        0
      ]
    }
  ],
  "textures": [
    {
      "sampler": 0,
      "source": 0
    }
  ]
}
