{
  "accessors": [
    {
      "bufferView": 2,
      "componentType": 5126,
      "count": 129,
      "max": [
        0.035617999732494354,
        0.039294999092817307,
        0.1386670023202896
      ],
      "min": [
        -0.041370999068021774,
        -0.03738100081682205,
        0.12083999812602997
      ],
      "type": "VEC3"
    },
    {
      "bufferView": 1,
      "componentType": 5126,
      "count": 129,
      "max": [
        0.0,
        0.0
      ],
      "min": [
        0.0,
        0.0
      ],
      "type": "VEC2"
    },
    {
      "bufferView": 0,
      "componentType": 5125,
      "count": 448,
      "type": "SCALAR"
    },
    {
      "bufferView": 2,
      "byteOffset": 1548,
      "componentType": 5126,
      "count": 810,
      "max": [
        0.05712300166487694,
        0.06373099982738495,
        0.2829490005970001
      ],
      "min": [
        -0.06257300078868866,
        -0.05984799936413765,
        -0.05004600062966347
      ],
      "type": "VEC3"
    },
    {
      "bufferView": 2,
      "byteOffset": 11268,
      "componentType": 5126,
      "count": 810,
      "max": [
        0.9990537166595459,
        0.9815214276313782,
        0.995839536190033
      ],
      "min": [
        -0.991357684135437,
        -0.996509850025177,
        -0.9977201819419861
      ],
      "type": "VEC3"
    },
    {
      "bufferView": 3,
      "componentType": 5126,
      "count": 810,
      "max": [
        0.9968891143798828,
        0.990409791469574,
        0.9990988373756409,
        1.0
      ],
      "min": [
        -0.9980348944664001,
        -0.9997206330299377,
        -0.9996824860572815,
        -1.0
      ],
      "type": "VEC4"
    },
    {
      "bufferView": 1,
      "byteOffset": 1032,
      "componentType": 5126,
      "count": 810,
      "max": [
        0.9896469712257385,
        1.0
      ],
      "min": [
        0.0,
        0.0
      ],
      "type": "VEC2"
    },
    {
      "bufferView": 0,
      "byteOffset": 1792,
      "componentType": 5125,
      "count": 2388,
      "type": "SCALAR"
    }
  ],
  "asset": {
    "extras": {
      "author": "alterbotcreations (https://sketchfab.com/alterbotcreations)",
      "license": "CC-BY-4.0 (http://creativecommons.org/licenses/by/4.0/)",
      "source": "https://sketchfab.com/3d-models/pink-ice-cream-cone-5cd72e75c08c4565807e4f4a761810ab",
      "title": "Pink Ice Cream Cone"
    },
    "generator": "Sketchfab-15.30.0",
    "version": "2.0"
  },
  "bufferViews": [
    {
      "buffer": 0,
      "byteLength": 11344,
      "name": "floatBufferViews",
      "target": 34963
    },
    {
      "buffer": 0,
      "byteLength": 7512,
      "byteOffset": 11344,
      "byteStride": 8,
      "name": "floatBufferViews",
      "target": 34962
    },
    {
      "buffer": 0,
      "byteLength": 20988,
      "byteOffset": 18856,
      "byteStride": 12,
      "name": "floatBufferViews",
      "target": 34962
    },
    {
      "buffer": 0,
      "byteLength": 12960,
      "byteOffset": 39844,
      "byteStride": 16,
      "name": "floatBufferViews",
      "target": 34962
    }
  ],
  "buffers": [
    {
      "byteLength": 52804,
      "uri": "scene.bin"
    }
  ],
  "images": [
    {
      "uri": "textures/Material.001_baseColor.png"
    },
    {
      "uri": "textures/Material.001_metallicRoughness.png"
    },
    {
      "uri": "textures/Material.001_normal.png"
    }
  ],
  "materials": [
    {
      "doubleSided": true,
      "name": "Material.001",
      "normalTexture": {
        "index": 2
      },
      "pbrMetallicRoughness": {
        "baseColorTexture": {
          "index": 0
        },
        "metallicFactor": 0.0,
        "metallicRoughnessTexture": {
          "index": 1
        }
      }
    }
  ],
  "meshes": [
    {
      "name": "Object_0",
      "primitives": [
        {
          "attributes": {
            "POSITION": 0,
            "TEXCOORD_0": 1
          },
          "indices": 2,
          "material": 0,
          "mode": 1
        }
      ]
    },
    {
      "name": "Object_1",
      "primitives": [
        {
          "attributes": {
            "NORMAL": 4,
            "POSITION": 3,
            "TANGENT": 5,
            "TEXCOORD_0": 6
          },
          "indices": 7,
          "material": 0,
          "mode": 4
        }
      ]
    }
  ],
  "nodes": [
    {
      "children": [
        1
      ],
      "matrix": [
        1.0,
        0.0,
        0.0,
        0.0,
        0.0,
        2.220446049250313e-16,
        -1.0,
        0.0,
        0.0,
        1.0,
        2.220446049250313e-16,
        0.0,
        0.0,
        0.0,
        0.0,
        1.0
      ],
      "name": "Sketchfab_model"
    },
    {
      "children": [
        2,
        3
      ],
      "name": "Pink Final.obj.cleaner.materialmerger.gles"
    },
    {
      "mesh": 0,
      "name": "Object_2"
    },
    {
      "mesh": 1,
      "name": "Object_3"
    }
  ],
  "samplers": [
    {
      "magFilter": 9729,
      "minFilter": 9987,
      "wrapS": 10497,
      "wrapT": 10497
    }
  ],
  "scene": 0,
  "scenes": [
    {
      "name": "Sketchfab_Scene",
      "nodes": [
        0
      ]
    }
  ],
  "textures": [
    {
      "sampler": 0,
      "source": 0
    },
    {
      "sampler": 0,
      "source": 1
    },
    {
      "sampler": 0,
      "source": 2
    }
  ]
}
